<svg xmlns="http://www.w3.org/2000/svg" xmlns:xlink="http://www.w3.org/1999/xlink" viewBox="0 0 738.93 689.68"><defs><style>.cls-1{fill:url(#Gradiente_sem_nome_14);}.cls-2{fill:#1d1d1b;stroke:#1d1d1b;stroke-miterlimit:10;}.cls-3{fill:url(#chama_laranja);}.cls-4{fill:url(#chama_laranja_alto);}.cls-5{fill:url(#chama_laranja_alto-2);}.cls-6{fill:url(#chama_laranja_alto-3);}.cls-7{fill:url(#chama_laranja-2);}.cls-8{fill:url(#chama_laranja_alto-4);}.cls-9{fill:url(#chama_laranja_alto-5);}</style><linearGradient id="Gradiente_sem_nome_14" x1="370.43" y1="144.48" x2="370.43" y2="688.89" gradientUnits="userSpaceOnUse"><stop offset="0" stop-color="#009fe3"/><stop offset="1" stop-color="#009fe3" stop-opacity="0"/></linearGradient><linearGradient id="chama_laranja" x1="287.7" y1="871.81" x2="287.7" y2="1430.69" gradientTransform="matrix(1, 0, 0, -0.87, 0, 1287.91)" gradientUnits="userSpaceOnUse"><stop offset="0" stop-color="#e71d73"/><stop offset="0.42" stop-color="#f39200"/><stop offset="0.59" stop-color="#f39200"/><stop offset="1" stop-color="#fcea10"/></linearGradient><linearGradient id="chama_laranja_alto" x1="355.57" y1="1138.3" x2="355.57" y2="825.97" gradientTransform="matrix(1, 0, 0, -0.87, 0, 1287.91)" gradientUnits="userSpaceOnUse"><stop offset="0" stop-color="#662483"/><stop offset="0.5" stop-color="#a3195b"/><stop offset="0.64" stop-color="#a6195c"/><stop offset="0.76" stop-color="#b01a60"/><stop offset="0.86" stop-color="#c11b66"/><stop offset="0.95" stop-color="#d81c6e"/><stop offset="1" stop-color="#e71d73"/></linearGradient><linearGradient id="chama_laranja_alto-2" x1="298.76" y1="879.37" x2="298.76" y2="871.81" xlink:href="#chama_laranja_alto"/><linearGradient id="chama_laranja_alto-3" x1="292.08" y1="1476.22" x2="292.08" y2="1164.07" xlink:href="#chama_laranja_alto"/><linearGradient id="chama_laranja-2" x1="454.81" y1="726.4" x2="454.81" y2="1192.07" xlink:href="#chama_laranja"/><linearGradient id="chama_laranja_alto-4" x1="410.29" y1="1107.74" x2="410.29" y2="1242.18" xlink:href="#chama_laranja_alto"/><linearGradient id="chama_laranja_alto-5" x1="368.9" y1="871.16" x2="502.97" y2="871.16" xlink:href="#chama_laranja_alto"/></defs><g id="Camada_2" data-name="Camada 2"><g id="Camada_5" data-name="Camada 5"><polygon class="cls-1" points="143.17 688.89 369.11 144.48 597.69 688.89 143.17 688.89"/><path class="cls-2" d="M369.47,28.57c-203.78,0-369,165.19-369,369A368.09,368.09,0,0,0,143.07,688.87l24-57.9c-56.38-46.82-95.59-112.84-107-187.74a302.17,302.17,0,0,1-3.46-45.7c0-169.06,140.08-306.11,312.88-306.11S682.34,228.47,682.34,397.53c0,93.65-43,177.47-110.72,233.62l24.24,57.74C682.62,621.38,738.43,516,738.43,397.53,738.43,193.76,573.24,28.57,369.47,28.57Z"/><path class="cls-3" d="M358.78,0c50.39,88.73,46,202.77-28.56,306.31-31,43-96.35,135.89-25.48,221.72-159.25-83.41-135.62-227.88-77.31-265.72C424.53,134.42,360.13,33.85,358.78,0Z"/><path class="cls-4" d="M330.22,306.31q3.79-5.26,7.34-10.57C313.67,351.2,235.32,471.89,438.18,568,362,551.86,359,554,304.74,528,233.87,442.2,299.24,349.35,330.22,306.31Z"/><path class="cls-5" d="M304.74,528a114.86,114.86,0,0,1-12-6.6C296.65,523.66,300.62,525.87,304.74,528Z"/><path class="cls-6" d="M358.86,1.21c2.73,35,63.38,134.69-131.43,261.1a75.92,75.92,0,0,0-13.18,11C250.26,217.94,369.42,150.88,358.86,1.21Z"/><path class="cls-7" d="M391.33,248.88c3,36.54,22.63,57.54,34.49,73.5,35,60.44,108.08,99.3,115.86,155.69,11,80-14.55,130.07-70.6,176.69,18.33-32.88,55.68-101.47,10.24-163.15-38.13-51.77-96.11-77.41-111-118.95C359.44,342.35,366.9,282.08,391.33,248.88Z"/><path class="cls-8" d="M425.82,322.38C414,306.44,394.43,285.47,391.34,249c8.55-15.29,19.87-29.13,37.89-43.84C409.83,262.74,416.12,288.69,425.82,322.38Z"/><path class="cls-9" d="M368.94,368.28c.42,1.51.87,3,1.37,4.38,14.9,41.54,72.88,67.18,111,119C526.39,552.79,490,620.77,471.54,654c-19.4,15.57-43.68,28.42-63.51,34.94C580.48,532.71,381.63,456.8,368.9,368.3Z"/></g></g></svg>